<svg width="1024" height="1024" viewBox="0 0 1024 1024" fill="none" xmlns="http://www.w3.org/2000/svg">
  <title>Typemore Glyph Logo</title>
  <rect width="1024" height="1024" fill="#050806"/>
  <path fill-rule="evenodd" clip-rule="evenodd" d="M260 286C260 260.595 280.595 240 306 240H718C743.405 240 764 260.595 764 286C764 311.405 743.405 332 718 332H558V454H718C743.405 454 764 474.595 764 500C764 525.405 743.405 546 718 546H558V706C558 731.405 537.405 752 512 752C486.595 752 466 731.405 466 706V332H306C280.595 332 260 311.405 260 286ZM764 402C789.405 402 810 422.595 810 448V454H816C841.405 454 862 474.595 862 500C862 525.405 841.405 546 816 546H810V552C810 577.405 789.405 598 764 598C738.595 598 718 577.405 718 552V448C718 422.595 738.595 402 764 402Z" fill="#45F59B"/>
  <path d="M306 240H718C743.405 240 764 260.595 764 286C764 311.405 743.405 332 718 332H306C280.595 332 260 311.405 260 286C260 260.595 280.595 240 306 240Z" fill="#7CFFB2" fill-opacity="0.28"/>
</svg>
